<svg height="512pt" viewBox="0 0 512 512" width="512pt" xmlns="http://www.w3.org/2000/svg">
<path d="m477.863281 120.320312v-26.453124c0-18.851563-15.28125-34.132813-34.132812-34.132813h-8.53125v-17.503906c10.71875-2.199219 18.039062-12.152344 16.9375-23.042969-1.101563-10.886719-10.261719-19.1757812-21.203125-19.1875h-59.734375c-10.945313.0117188-20.105469 8.300781-21.207031 19.1875-1.097657 10.890625 6.21875 20.84375 16.941406 23.042969v17.503906h-8.535156c-18.851563 0-34.132813 15.28125-34.132813 34.132813v26.453124c-19.851563 4.082032-34.109375 21.546876-34.132813 41.8125v85.332032c.007813 11.050781 4.324219 21.660156 12.03125 29.578125-7.105468 4.449219-11.574218 12.105469-11.945312 20.480469-1.425781-.171876-2.808594-.488282-4.269531-.519532-3.304688-18.871094-17.203125-34.140625-35.683594-39.199218-18.480469-5.058594-38.21875 1.003906-50.671875 15.5625-3.949219.28125-7.84375 1.050781-11.605469 2.285156-2.027343-20.695313-12.644531-39.589844-29.269531-52.078125-3.769531-2.828125-9.121094-2.066407-11.945312 1.707031-2.828126 3.769531-2.066407 9.117188 1.703124 11.945312 12.363282 9.3125 20.441407 23.226563 22.394532 38.578126-5.828125-2.097657-12.015625-3.03125-18.203125-2.738282-9.152344.652344-17.574219 5.238282-23.089844 12.570313-8.117187-7.71875-17.828125-13.5625-28.453125-17.117188 4.070312-8.605469 9.410156-16.542969 15.847656-23.554687 3.332032-3.332032 3.332032-8.738282-.003906-12.070313s-8.738281-3.328125-12.070312.003907c-3.585938 3.757812-6.859376 7.800781-9.796876 12.085937-2.804687-4.519531-6.902343-8.089844-11.765624-10.242187-16.878907-7.335938-36.371094 5.648437-38.539063 7.152343-3.285156 2.277344-4.550781 6.535157-3.035156 10.238281 2.34375 5.933594 5.242187 11.628907 8.652343 17.015626-22.851562 8.363281-40.390624 27.058593-47.277343 50.398437-6.882813 23.339844-2.296875 48.5625 12.359375 67.984375-2.886719 1.613281-5.433594 3.769531-7.503906 6.351562-4.8125 6.082032-6.53125 14.050782-4.65625 21.578126 11.023437 43.226562 42.289062 78.445312 83.90625 94.507812 3.210937 1.339844 6.660156 2.03125 10.136718 2.03125h180.722656c3.464844 0 6.902344-.6875 10.101563-2.023438 5.765625-2.464843 11.390625-5.25 16.84375-8.34375 7.710937 6.667969 17.558594 10.347657 27.75 10.367188h136.535156c23.550781-.027344 42.636719-19.113281 42.667969-42.667969v-85.332031c-.011719-11.039062-4.320312-21.644531-12.015625-29.558594 1.597656-.992187 3.074219-2.164062 4.402344-3.5 4.898437-4.761718 7.644531-11.3125 7.613281-18.140625-.023438-6.320312-2.398438-12.402343-6.65625-17.066406 5.101562-5.574219 7.449219-13.128906 6.410156-20.609375-1.039062-7.484375-5.359375-14.113281-11.789062-18.082031 7.707031-7.917969 12.023437-18.527344 12.035156-29.578125v-85.332032c-.027344-20.265624-14.28125-37.730468-34.136719-41.8125zm-106.664062-103.253906h59.734375c2.355468 0 4.265625 1.910156 4.265625 4.265625 0 2.359375-1.910157 4.269531-4.265625 4.269531h-59.734375c-2.355469 0-4.265625-1.910156-4.265625-4.269531 0-2.355469 1.910156-4.265625 4.265625-4.265625zm12.800781 25.601563h34.132812v17.066406h-34.132812zm-42.667969 51.199219c0-9.425782 7.640625-17.066407 17.066407-17.066407h85.332031c9.425781 0 17.066406 7.640625 17.066406 17.066407v25.597656h-119.464844zm-34.132812 68.265624c0-14.136718 11.460937-25.597656 25.597656-25.597656h136.535156c14.136719 0 25.601563 11.460938 25.601563 25.597656v85.332032c0 14.140625-11.464844 25.601562-25.601563 25.601562h-136.535156c-14.136719 0-25.597656-11.460937-25.597656-25.601562zm179.199219 128c4.710937 0 8.535156 3.820313 8.535156 8.535157 0 4.710937-3.824219 8.53125-8.535156 8.53125h-170.667969c-4.710938 0-8.53125-3.820313-8.53125-8.53125 0-4.714844 3.820312-8.535157 8.53125-8.535157zm8.535156 42.667969c.003906 2.296875-.941406 4.5-2.613282 6.074219-1.554687 1.59375-3.695312 2.480469-5.921874 2.457031h-158.839844c0-.570312.121094-1.140625.121094-1.707031-.023438-5.257812-1.027344-10.46875-2.960938-15.359375h161.679688c4.710937 0 8.535156 3.820313 8.535156 8.535156zm-225.28125-26.625c0 2.546875 1.136718 4.957031 3.097656 6.578125 1.964844 1.621094 4.546875 2.28125 7.046875 1.800782 1.71875-.339844 3.464844-.515626 5.214844-.527344 14.136719 0 25.601562 11.460937 25.601562 25.597656-.019531 2.542969-.382812 5.066406-1.078125 7.511719-1.039062 3.867187.753906 7.941406 4.3125 9.785156 6.347656 3.222656 10.371094 9.71875 10.417969 16.839844 0 3.644531-1.085937 7.210937-3.125 10.238281h-58.957031c1.535156-6.140625 2.320312-12.445312 2.347656-18.773438-.175781-22.832031-9.992188-44.527343-27.023438-59.734374-.589843-2.84375-1.367187-5.644532-2.332031-8.386719-2.660156-7.855469-7.863281-14.597657-14.785156-19.167969 5.050781-3.148438 10.878906-4.835938 16.835937-4.871094 8.703126.050782 17.023438 3.574219 23.117188 9.792969 6.089844 6.21875 9.441406 14.613281 9.308594 23.316406zm-159.472656 77.824219c-6.191407-19.457031-2.398438-40.714844 10.136718-56.832031.695313 4.085937 1.96875 8.050781 3.789063 11.777343 2.425781 4.828126 5.929687 9.03125 10.242187 12.285157 5.105469 3.730469 11.015625 6.210937 17.253906 7.238281.753907.011719 1.503907-.085938 2.226563-.289062 2.628906-.800782 4.746094-2.761719 5.742187-5.316407v-.09375c.105469-.292969 7.679688-19.96875 19.628907-19.96875 11.945312 0 19.496093 19.675781 19.625 19.96875v.09375c1 2.554688 3.117187 4.515625 5.742187 5.316407.726563.203124 1.476563.300781 2.230469.289062 6.242187-1.03125 12.160156-3.511719 17.269531-7.246094 4.308594-3.25 7.8125-7.449218 10.238282-12.269531 1.234374-2.535156 2.214843-5.183594 2.929687-7.910156 10.3125 15.640625 13 35.109375 7.304687 52.957031zm33.402343-37.128906c.171875-.464844.386719-.910156.636719-1.339844-.1875.496094-.347656.964844-.492188 1.398438zm70.59375-1.339844c.25.429688.464844.875.640625 1.339844l-.144531.058594c-.144531-.476563-.308594-.902344-.488281-1.398438zm-60.527343-55.398438c6.1875-.261718 12.304687 1.40625 17.503906 4.769532-.144532 1.195312-.28125 1.9375-.324219 2.144531-.890625 4.589844 2.082031 9.042969 6.664063 9.984375.5625.117188 1.132812.171875 1.707031.167969 4.050781-.003907 7.542969-2.855469 8.351562-6.824219.378907-2.0625.648438-4.140625.8125-6.230469 4.988281-2.863281 10.6875-4.253906 16.433594-4.011719 6.847656 1.09375 12.445313 6.050782 14.355469 12.714844.878906 2.472656 1.558594 5.011719 2.03125 7.59375 0 .105469.042968.1875.050781.292969 1.460937 6.925781.703125 14.136719-2.167969 20.605469-1.164062 2.347656-2.832031 4.410156-4.882812 6.042968-.527344.332032-1.707032.972657-2.96875 1.65625-5.460938-10.105468-16.117188-23.304687-32.015625-23.304687-15.898438 0-26.566407 13.207031-31.984375 23.285156-1.203125-.621093-2.226563-1.183593-2.621094-1.421875-2.199219-1.667968-3.988281-3.820312-5.21875-6.289062-3.78125-9.117188-3.808594-19.351563-.078125-28.484375 1.914063-6.660157 7.511719-11.609375 14.351563-12.691407zm-77.097657-39.722656c4.554688 3.1875 7.414063 8.269532 7.78125 13.816406l-.273437.65625c-5.109375-.460937-10.257813-.414062-15.359375.144532-3.269531-3.738282-5.988281-7.925782-8.0625-12.441406 4.828125-2.738282 10.527343-3.515626 15.914062-2.175782zm-9.632812 31.957032c3.898437-.574219 7.84375-.808594 11.785156-.707032-1.238281 5.585938-1.878906 11.285156-1.90625 17.007813 0 4.710937 3.820313 8.53125 8.535156 8.53125 4.710938 0 8.53125-3.820313 8.53125-8.53125.027344-4.667969.574219-9.320313 1.632813-13.867188 9.980468 3.3125 18.898437 9.226563 25.835937 17.125-19.523437 15.21875-30.996093 38.546875-31.136719 63.300781.027344 6.328126.816407 12.632813 2.347657 18.773438h-57.421875c-16.121094-15.691406-22.046875-39.113281-15.328125-60.585938 6.714843-21.46875 24.933593-37.339843 47.125-41.046874zm214.636719 211.890624c-1.082032.449219-2.242188.675782-3.414063.675782h-180.761719c-1.203125.007812-2.398437-.222656-3.515625-.683594-36.777343-13.796875-64.4375-44.78125-73.992187-82.882812-.609375-2.4375-.042969-5.015626 1.527344-6.972657 1.640624-2.105469 4.160156-3.335937 6.828124-3.328125h318.976563c2.667969-.007812 5.1875 1.222656 6.824219 3.328125 1.574218 1.957031 2.140625 4.535157 1.53125 6.972657-9.777344 37.988281-37.359375 68.886718-74.003906 82.890624zm213.378906-24.925781c0 14.140625-11.464844 25.601563-25.601563 25.601563h-136.535156c-4.289063-.039063-8.496094-1.164063-12.234375-3.269532 25.605469-18.554687 43.859375-45.53125 51.566406-76.203124 1.875-7.527344.152344-15.496094-4.660156-21.578126-4.863281-6.253906-12.34375-9.902343-20.265625-9.882812h-7.535156c2.742187-8.445312 2.082031-17.628906-1.835938-25.601562h131.5c14.136719 0 25.601563 11.464843 25.601563 25.601562zm0 0"/><path d="m332.796875 179.199219c4.714844 0 8.535156-3.820313 8.535156-8.53125v-8.535157c0-4.710937-3.820312-8.53125-8.535156-8.53125-4.710937 0-8.53125 3.820313-8.53125 8.53125v8.535157c0 4.710937 3.820313 8.53125 8.53125 8.53125zm0 0"/><path d="m332.796875 256c4.714844 0 8.535156-3.820312 8.535156-8.535156v-42.664063c0-4.714843-3.820312-8.535156-8.535156-8.535156-4.710937 0-8.53125 3.820313-8.53125 8.535156v42.664063c0 4.714844 3.820313 8.535156 8.53125 8.535156zm0 0"/><path d="m59.730469 418.132812h-8.53125c-4.714844 0-8.535157 3.820313-8.535157 8.535157 0 4.710937 3.820313 8.53125 8.535157 8.53125h8.53125c4.714843 0 8.535156-3.820313 8.535156-8.53125 0-4.714844-3.820313-8.535157-8.535156-8.535157zm0 0"/><path d="m332.796875 426.667969c0-4.714844-3.820313-8.535157-8.53125-8.535157h-230.402344c-4.710937 0-8.53125 3.820313-8.53125 8.535157 0 4.710937 3.820313 8.53125 8.53125 8.53125h230.402344c4.710937 0 8.53125-3.820313 8.53125-8.53125zm0 0"/></svg>